<svg width="492" height="145" xmlns="http://www.w3.org/2000/svg" version="1.1">

 <g>
  <title>Layer 1</title>
  <g stroke="null" id="svg_1">
   <path stroke="null" fill="#077de1" id="svg_2" d="m167.25,59.78879l157.5,0l0,31.42508l-157.5,0l0,-31.42508z"/>
   <path stroke="null" fill="#077de1" id="svg_3" d="m1,59.78879l35,0l0,-23.56881l61.25,0l0,78.5627l-61.25,0l0,-23.56881l-35,0l0,-31.42508z"/>
   <path stroke="null" fill="#077de1" id="svg_4" d="m347.45,108.20137c0.36719,-0.56467 0.94531,-0.98908 1.6094,-1.25557c1.7852,-0.65937 3.832,0.07716 4.5859,1.67998l3.4844,7.40034c0.75391,1.60286 2.8008,2.34287 4.5859,1.67998c0.66406,-0.25252 1.2266,-0.69093 1.6094,-1.25557l1.6445,-2.35688c0.36719,-0.56467 0.94531,-0.98908 1.6094,-1.25557c1.7852,-0.65937 3.832,0.07716 4.5859,1.67998l3.4844,7.40034c0.75391,1.60286 2.8008,2.34287 4.5859,1.67998c0.66406,-0.25252 1.2266,-0.69093 1.6094,-1.25557l5.1562,-7.55818l0,-78.5627l-5.1992,-7.55818c-0.99609,-1.47653 -3.168,-1.95006 -4.7969,-1.0206c-0.62891,0.34722 -1.1016,0.84876 -1.3828,1.46252l-3.4844,7.40034c-0.28125,0.61377 -0.75391,1.11532 -1.3828,1.46252c-1.6445,0.91187 -3.8164,0.43841 -4.7969,-1.0206l-1.6445,-2.35688c-0.99609,-1.47653 -3.168,-1.95006 -4.7969,-1.0206c-0.62891,0.34722 -1.1016,0.84876 -1.3828,1.46252l-3.4844,7.40034c-0.28125,0.61377 -0.75391,1.11532 -1.3828,1.46252c-1.6445,0.91187 -3.8164,0.43841 -4.7969,-1.0206l-1.6445,-2.35688c-0.99609,-1.47653 -3.168,-1.95006 -4.7969,-1.0206c-0.62891,0.34722 -1.1016,0.84876 -1.3828,1.46252l-6.1445,12.93815l0,43.20949l6.125,13.02614c0.75391,1.60286 2.8008,2.34287 4.5859,1.67998c0.66406,-0.25252 1.2266,-0.69093 1.6094,-1.25557l1.629,-2.35715z"/>
   <path stroke="null" fill="#077de1" id="svg_5" d="m144.57,108.20137c-1.0156,-1.47653 -3.168,-1.95006 -4.8125,-1.0206c-0.62891,0.34371 -1.1016,0.84876 -1.3984,1.45902l-3.4688,7.40034c-0.27734,0.61377 -0.76953,1.11532 -1.3984,1.46252c-1.6289,0.89435 -3.7969,0.42438 -4.8125,-1.0522l-1.6289,-2.35688c-1.0117,-1.47653 -3.1641,-1.95006 -4.8125,-1.0206c-0.62891,0.34371 -1.1016,0.84876 -1.3984,1.45902l-3.4648,7.40034c-0.28125,0.61377 -0.76953,1.11532 -1.3984,1.46252c-1.6484,0.91187 -3.8008,0.43841 -4.8125,-1.0206l-5.1641,-7.5897l0,-78.5627l5.1797,-7.55818c0.36719,-0.56467 0.94531,-0.98908 1.6289,-1.25557c1.7852,-0.65937 3.832,0.07716 4.5859,1.67998l3.4648,7.40034c0.75391,1.60286 2.8008,2.34287 4.5859,1.67998c0.68359,-0.25252 1.2422,-0.69093 1.6289,-1.25557l1.6289,-2.35688c0.36719,-0.56467 0.94531,-0.98908 1.6289,-1.25557c1.7852,-0.65937 3.832,0.07716 4.5859,1.67998l3.4648,7.40034c0.75391,1.60286 2.8008,2.34287 4.5859,1.67998c0.68359,-0.25252 1.2422,-0.69093 1.6289,-1.25557l1.6289,-2.35688c0.36719,-0.56467 0.94531,-0.98908 1.6289,-1.25557c1.7852,-0.65937 3.8164,0.07716 4.5664,1.67998l6.0781,13.02614l0,43.20949l-6.125,13.02614c-0.28125,0.61377 -0.75391,1.11532 -1.3828,1.46252c-1.6445,0.91187 -3.7969,0.43841 -4.8125,-1.0206l-1.6094,-2.37089l0.0002,-0.00413z"/>
   <path stroke="null" fill="#077de1" id="svg_6" d="m429.75,114.78268l-35,0l0,-78.5627l35,0l26.25,23.56881l35,0l0,31.42508l-35,0l-26.25,23.56881z"/>
  </g>
 </g>
</svg>